<?xml version="1.0" standalone="no"?>
<!DOCTYPE svg PUBLIC "-//W3C//DTD SVG 20010904//EN"
 "http://www.w3.org/TR/2001/REC-SVG-20010904/DTD/svg10.dtd">
<svg version="1.0" xmlns="http://www.w3.org/2000/svg"
 width="512.000000pt" height="512.000000pt" viewBox="0 0 512.000000 512.000000"
 preserveAspectRatio="xMidYMid meet">

<g transform="translate(0.000000,512.000000) scale(0.100000,-0.100000)"
fill="#000000" stroke="none">
<path d="M1804 4372 c-390 -394 -839 -850 -999 -1012 -159 -162 -400 -406
-535 -543 -135 -136 -246 -251 -248 -255 -1 -4 77 -86 173 -182 l175 -175 57
58 58 57 -108 108 c-59 59 -107 112 -107 117 0 5 35 45 77 87 l78 78 110 -110
110 -110 54 61 54 61 -39 41 c-21 23 -68 72 -104 110 l-65 67 62 62 61 61 108
-112 107 -112 61 60 61 61 -120 121 c-66 67 -115 119 -109 116 10 -6 125 108
1178 1172 l559 564 188 -194 c103 -107 188 -198 188 -202 1 -8 -154 -166
-1046 -1067 l-262 -265 263 -270 263 -270 66 59 c37 32 67 64 67 70 0 7 -28
39 -62 71 -35 33 -125 123 -200 199 l-136 140 588 596 c324 327 620 626 659
664 l70 70 -62 65 c-34 37 -179 186 -323 333 l-262 268 -708 -718z"/>
<path d="M3693 2544 l-660 -668 66 -63 66 -63 596 602 595 602 190 -193 c104
-107 189 -199 189 -206 0 -7 -394 -411 -875 -897 -481 -486 -947 -956 -1034
-1045 -88 -90 -161 -161 -163 -159 -2 2 48 111 111 242 l114 239 -76 78 -77
77 -320 -320 -320 -320 65 -65 65 -65 183 182 c141 141 179 175 168 148 -8
-19 -59 -132 -114 -251 l-100 -217 77 -76 76 -75 23 25 c12 14 498 508 1080
1097 581 590 1131 1148 1222 1240 l164 168 -325 325 -325 326 -661 -668z"/>
<path d="M818 2387 l-317 -324 66 -65 65 -65 179 181 c101 102 175 170 170
156 -5 -14 -54 -126 -110 -249 l-101 -225 68 -70 c37 -39 69 -72 72 -74 3 -1
149 142 325 318 l320 320 -65 65 -65 65 -177 -177 c-98 -98 -178 -175 -178
-171 0 4 50 114 111 244 l111 237 -79 79 -79 79 -316 -324z"/>
<path d="M1377 1823 l-318 -327 58 -58 c31 -32 62 -58 68 -58 5 0 71 61 146
136 l136 136 28 -36 c19 -25 30 -53 33 -86 l4 -49 -95 -100 c-53 -55 -99 -112
-103 -126 -6 -23 2 -35 57 -91 l63 -64 13 32 c7 17 53 72 102 122 146 150 164
189 116 260 -27 40 -23 44 24 20 74 -37 144 -13 225 77 109 122 82 205 -140
437 l-99 102 -318 -327z m409 35 c8 -15 14 -43 14 -62 0 -44 -46 -100 -96
-116 -29 -10 -41 -9 -78 10 -80 38 -80 41 19 140 86 86 90 89 108 72 10 -9 25
-29 33 -44z"/>
<path d="M4852 2013 c-117 -57 -132 -219 -27 -298 92 -71 231 -22 266 94 23
78 -15 160 -91 199 -52 26 -102 28 -148 5z m164 -55 c60 -66 55 -159 -12 -218
-59 -51 -152 -36 -194 33 -24 39 -26 116 -5 158 41 78 151 92 211 27z"/>
<path d="M4860 1855 c0 -78 3 -95 15 -95 11 0 15 12 15 45 0 25 5 45 10 45 6
0 23 -20 38 -45 15 -24 33 -45 40 -45 10 0 8 10 -7 36 -25 42 -26 54 -6 54 8
0 19 9 25 19 27 51 -1 81 -76 81 l-54 0 0 -95z m105 45 c0 -22 -5 -25 -37 -28
-36 -3 -38 -2 -38 28 0 30 2 31 38 28 32 -3 37 -6 37 -28z"/>
<path d="M2135 1506 c-69 -35 -416 -383 -444 -446 -57 -126 17 -288 162 -356
68 -31 129 -31 193 1 63 31 400 369 435 435 49 96 24 214 -66 304 -85 85 -189
108 -280 62z m174 -172 c23 -19 31 -34 31 -59 0 -30 -20 -54 -186 -224 -103
-105 -197 -194 -210 -197 -57 -14 -107 27 -107 88 0 25 28 58 194 224 212 213
220 217 278 168z"/>
</g>
</svg>
